<svg width="17" height="12" viewBox="0 0 17 12" fill="none" xmlns="http://www.w3.org/2000/svg">
<path d="M1.29549 1.0013C1.13939 1.0013 1.0028 1.04032 0.866219 1.07934L7.65646 6.85496C7.94915 7.10862 8.28085 7.10862 8.59305 6.85496L15.3833 1.05983C15.2467 1.0013 15.1101 0.981781 14.954 0.981781H1.29549V1.0013ZM0.144268 1.99642C0.144268 2.05495 0.124756 2.1135 0.124756 2.17203V9.97691C0.124756 10.6208 0.651585 11.1476 1.29549 11.1476H14.954C15.5979 11.1476 16.1248 10.6208 16.1248 9.97691V2.17203C16.1248 2.1135 16.1248 2.05495 16.1052 1.99642L9.33451 7.75251C8.63207 8.35739 7.57841 8.35739 6.87597 7.75251L0.144268 1.99642Z" fill="#1F2041" fill-opacity="0.75"/>
</svg>
