<svg width="385" height="28" viewBox="0 0 385 28" fill="none" xmlns="http://www.w3.org/2000/svg">
<path d="M37.231 19.1509L35.117 16.1409C34.8557 16.1595 34.6503 16.1689 34.501 16.1689H32.079V19.1509H30.679V9.35088H34.501C35.7703 9.35088 36.769 9.65421 37.497 10.2609C38.225 10.8675 38.589 11.7029 38.589 12.7669C38.589 13.5229 38.4023 14.1669 38.029 14.6989C37.6557 15.2309 37.1237 15.6182 36.433 15.8609L38.757 19.1509H37.231ZM34.459 14.9789C35.3457 14.9789 36.0223 14.7875 36.489 14.4049C36.9557 14.0222 37.189 13.4762 37.189 12.7669C37.189 12.0575 36.9557 11.5162 36.489 11.1429C36.0223 10.7602 35.3457 10.5689 34.459 10.5689H32.079V14.9789H34.459ZM47.3609 15.4829C47.3609 15.5855 47.3515 15.7209 47.3329 15.8889H41.3129C41.3969 16.5422 41.6815 17.0695 42.1669 17.4709C42.6615 17.8629 43.2729 18.0589 44.0009 18.0589C44.8875 18.0589 45.6015 17.7602 46.1429 17.1629L46.8849 18.0309C46.5489 18.4229 46.1289 18.7215 45.6249 18.9269C45.1302 19.1322 44.5749 19.2349 43.9589 19.2349C43.1749 19.2349 42.4795 19.0762 41.8729 18.7589C41.2662 18.4322 40.7949 17.9795 40.4589 17.4009C40.1322 16.8222 39.9689 16.1689 39.9689 15.4409C39.9689 14.7222 40.1275 14.0735 40.4449 13.4949C40.7715 12.9162 41.2149 12.4682 41.7749 12.1509C42.3442 11.8242 42.9835 11.6609 43.6929 11.6609C44.4022 11.6609 45.0322 11.8242 45.5829 12.1509C46.1429 12.4682 46.5769 12.9162 46.8849 13.4949C47.2022 14.0735 47.3609 14.7362 47.3609 15.4829ZM43.6929 12.7949C43.0489 12.7949 42.5075 12.9909 42.0689 13.3829C41.6395 13.7749 41.3875 14.2882 41.3129 14.9229H46.0729C45.9982 14.2975 45.7415 13.7889 45.3029 13.3969C44.8735 12.9955 44.3369 12.7949 43.6929 12.7949ZM56.3251 11.7309V18.1429C56.3251 19.4402 56.0031 20.3969 55.3591 21.0129C54.7151 21.6382 53.7538 21.9509 52.4751 21.9509C51.7751 21.9509 51.1078 21.8529 50.4731 21.6569C49.8385 21.4702 49.3251 21.1995 48.9331 20.8449L49.5771 19.8089C49.9225 20.1075 50.3471 20.3409 50.8511 20.5089C51.3645 20.6862 51.8918 20.7749 52.4331 20.7749C53.3011 20.7749 53.9405 20.5695 54.3511 20.1589C54.7711 19.7482 54.9811 19.1229 54.9811 18.2829V17.6949C54.6638 18.0775 54.2718 18.3669 53.8051 18.5629C53.3478 18.7495 52.8485 18.8429 52.3071 18.8429C51.5978 18.8429 50.9538 18.6935 50.3751 18.3949C49.8058 18.0869 49.3578 17.6622 49.0311 17.1209C48.7045 16.5702 48.5411 15.9449 48.5411 15.2449C48.5411 14.5449 48.7045 13.9242 49.0311 13.3829C49.3578 12.8322 49.8058 12.4075 50.3751 12.1089C50.9538 11.8102 51.5978 11.6609 52.3071 11.6609C52.8671 11.6609 53.3851 11.7635 53.8611 11.9689C54.3465 12.1742 54.7431 12.4775 55.0511 12.8789V11.7309H56.3251ZM52.4611 17.6669C52.9465 17.6669 53.3805 17.5642 53.7631 17.3589C54.1551 17.1535 54.4585 16.8689 54.6731 16.5049C54.8971 16.1315 55.0091 15.7115 55.0091 15.2449C55.0091 14.5262 54.7711 13.9475 54.2951 13.5089C53.8191 13.0609 53.2078 12.8369 52.4611 12.8369C51.7051 12.8369 51.0891 13.0609 50.6131 13.5089C50.1371 13.9475 49.8991 14.5262 49.8991 15.2449C49.8991 15.7115 50.0065 16.1315 50.2211 16.5049C50.4451 16.8689 50.7485 17.1535 51.1311 17.3589C51.5231 17.5642 51.9665 17.6669 52.4611 17.6669ZM62.0711 19.2349C61.3338 19.2349 60.6711 19.0715 60.0831 18.7449C59.4951 18.4182 59.0331 17.9702 58.6971 17.4009C58.3705 16.8222 58.2071 16.1689 58.2071 15.4409C58.2071 14.7129 58.3705 14.0642 58.6971 13.4949C59.0331 12.9162 59.4951 12.4682 60.0831 12.1509C60.6711 11.8242 61.3338 11.6609 62.0711 11.6609C62.8085 11.6609 63.4665 11.8242 64.0451 12.1509C64.6331 12.4682 65.0905 12.9162 65.4171 13.4949C65.7531 14.0642 65.9211 14.7129 65.9211 15.4409C65.9211 16.1689 65.7531 16.8222 65.4171 17.4009C65.0905 17.9702 64.6331 18.4182 64.0451 18.7449C63.4665 19.0715 62.8085 19.2349 62.0711 19.2349ZM62.0711 18.0589C62.5471 18.0589 62.9718 17.9515 63.3451 17.7369C63.7278 17.5129 64.0265 17.2049 64.2411 16.8129C64.4558 16.4115 64.5631 15.9542 64.5631 15.4409C64.5631 14.9275 64.4558 14.4749 64.2411 14.0829C64.0265 13.6815 63.7278 13.3735 63.3451 13.1589C62.9718 12.9442 62.5471 12.8369 62.0711 12.8369C61.5951 12.8369 61.1658 12.9442 60.7831 13.1589C60.4098 13.3735 60.1111 13.6815 59.8871 14.0829C59.6725 14.4749 59.5651 14.9275 59.5651 15.4409C59.5651 15.9542 59.6725 16.4115 59.8871 16.8129C60.1111 17.2049 60.4098 17.5129 60.7831 17.7369C61.1658 17.9515 61.5951 18.0589 62.0711 18.0589ZM74.8779 11.7309V18.1429C74.8779 19.4402 74.5559 20.3969 73.9119 21.0129C73.2679 21.6382 72.3065 21.9509 71.0279 21.9509C70.3279 21.9509 69.6605 21.8529 69.0259 21.6569C68.3912 21.4702 67.8779 21.1995 67.4859 20.8449L68.1299 19.8089C68.4752 20.1075 68.8999 20.3409 69.4039 20.5089C69.9172 20.6862 70.4445 20.7749 70.9859 20.7749C71.8539 20.7749 72.4932 20.5695 72.9039 20.1589C73.3239 19.7482 73.5339 19.1229 73.5339 18.2829V17.6949C73.2165 18.0775 72.8245 18.3669 72.3579 18.5629C71.9005 18.7495 71.4012 18.8429 70.8599 18.8429C70.1505 18.8429 69.5065 18.6935 68.9279 18.3949C68.3585 18.0869 67.9105 17.6622 67.5839 17.1209C67.2572 16.5702 67.0939 15.9449 67.0939 15.2449C67.0939 14.5449 67.2572 13.9242 67.5839 13.3829C67.9105 12.8322 68.3585 12.4075 68.9279 12.1089C69.5065 11.8102 70.1505 11.6609 70.8599 11.6609C71.4199 11.6609 71.9379 11.7635 72.4139 11.9689C72.8992 12.1742 73.2959 12.4775 73.6039 12.8789V11.7309H74.8779ZM71.0139 17.6669C71.4992 17.6669 71.9332 17.5642 72.3159 17.3589C72.7079 17.1535 73.0112 16.8689 73.2259 16.5049C73.4499 16.1315 73.5619 15.7115 73.5619 15.2449C73.5619 14.5262 73.3239 13.9475 72.8479 13.5089C72.3719 13.0609 71.7605 12.8369 71.0139 12.8369C70.2579 12.8369 69.6419 13.0609 69.1659 13.5089C68.6899 13.9475 68.4519 14.5262 68.4519 15.2449C68.4519 15.7115 68.5592 16.1315 68.7739 16.5049C68.9979 16.8689 69.3012 17.1535 69.6839 17.3589C70.0759 17.5642 70.5192 17.6669 71.0139 17.6669ZM81.4079 11.6609C82.3505 11.6609 83.0972 11.9362 83.6479 12.4869C84.2079 13.0282 84.4879 13.8262 84.4879 14.8809V19.1509H83.1439V15.0349C83.1439 14.3162 82.9712 13.7749 82.6259 13.4109C82.2805 13.0469 81.7859 12.8649 81.1419 12.8649C80.4139 12.8649 79.8399 13.0795 79.4199 13.5089C78.9999 13.9289 78.7899 14.5355 78.7899 15.3289V19.1509H77.4459V11.7309H78.7339V12.8509C79.0045 12.4682 79.3685 12.1742 79.8259 11.9689C80.2925 11.7635 80.8199 11.6609 81.4079 11.6609ZM86.9752 11.7309H88.3192V19.1509H86.9752V11.7309ZM87.6472 10.3029C87.3858 10.3029 87.1665 10.2189 86.9892 10.0509C86.8212 9.88288 86.7372 9.67755 86.7372 9.43488C86.7372 9.19221 86.8212 8.98688 86.9892 8.81888C87.1665 8.64155 87.3858 8.55288 87.6472 8.55288C87.9085 8.55288 88.1232 8.63688 88.2912 8.80488C88.4685 8.96354 88.5572 9.16421 88.5572 9.40688C88.5572 9.65888 88.4685 9.87355 88.2912 10.0509C88.1232 10.2189 87.9085 10.3029 87.6472 10.3029ZM95.0573 18.7169C94.8613 18.8849 94.6187 19.0155 94.3293 19.1089C94.04 19.1929 93.7413 19.2349 93.4333 19.2349C92.6867 19.2349 92.108 19.0342 91.6973 18.6329C91.2867 18.2315 91.0813 17.6575 91.0813 16.9109V12.8369H89.8213V11.7309H91.0813V10.1069H92.4253V11.7309H94.5533V12.8369H92.4253V16.8549C92.4253 17.2562 92.5233 17.5642 92.7193 17.7789C92.9247 17.9935 93.214 18.1009 93.5873 18.1009C93.998 18.1009 94.348 17.9842 94.6373 17.7509L95.0573 18.7169ZM96.6822 11.7309H98.0262V19.1509H96.6822V11.7309ZM97.3542 10.3029C97.0929 10.3029 96.8735 10.2189 96.6962 10.0509C96.5282 9.88288 96.4442 9.67755 96.4442 9.43488C96.4442 9.19221 96.5282 8.98688 96.6962 8.81888C96.8735 8.64155 97.0929 8.55288 97.3542 8.55288C97.6155 8.55288 97.8302 8.63688 97.9982 8.80488C98.1755 8.96354 98.2642 9.16421 98.2642 9.40688C98.2642 9.65888 98.1755 9.87355 97.9982 10.0509C97.8302 10.2189 97.6155 10.3029 97.3542 10.3029ZM103.77 19.2349C103.033 19.2349 102.37 19.0715 101.782 18.7449C101.194 18.4182 100.732 17.9702 100.396 17.4009C100.07 16.8222 99.9064 16.1689 99.9064 15.4409C99.9064 14.7129 100.07 14.0642 100.396 13.4949C100.732 12.9162 101.194 12.4682 101.782 12.1509C102.37 11.8242 103.033 11.6609 103.77 11.6609C104.508 11.6609 105.166 11.8242 105.744 12.1509C106.332 12.4682 106.79 12.9162 107.116 13.4949C107.452 14.0642 107.62 14.7129 107.62 15.4409C107.62 16.1689 107.452 16.8222 107.116 17.4009C106.79 17.9702 106.332 18.4182 105.744 18.7449C105.166 19.0715 104.508 19.2349 103.77 19.2349ZM103.77 18.0589C104.246 18.0589 104.671 17.9515 105.044 17.7369C105.427 17.5129 105.726 17.2049 105.94 16.8129C106.155 16.4115 106.262 15.9542 106.262 15.4409C106.262 14.9275 106.155 14.4749 105.94 14.0829C105.726 13.6815 105.427 13.3735 105.044 13.1589C104.671 12.9442 104.246 12.8369 103.77 12.8369C103.294 12.8369 102.865 12.9442 102.482 13.1589C102.109 13.3735 101.81 13.6815 101.586 14.0829C101.372 14.4749 101.264 14.9275 101.264 15.4409C101.264 15.9542 101.372 16.4115 101.586 16.8129C101.81 17.2049 102.109 17.5129 102.482 17.7369C102.865 17.9515 103.294 18.0589 103.77 18.0589ZM113.441 11.6609C114.384 11.6609 115.13 11.9362 115.681 12.4869C116.241 13.0282 116.521 13.8262 116.521 14.8809V19.1509H115.177V15.0349C115.177 14.3162 115.004 13.7749 114.659 13.4109C114.314 13.0469 113.819 12.8649 113.175 12.8649C112.447 12.8649 111.873 13.0795 111.453 13.5089C111.033 13.9289 110.823 14.5355 110.823 15.3289V19.1509H109.479V11.7309H110.767V12.8509C111.038 12.4682 111.402 12.1742 111.859 11.9689C112.326 11.7635 112.853 11.6609 113.441 11.6609ZM124.896 19.2349C124.289 19.2349 123.706 19.1555 123.146 18.9969C122.586 18.8289 122.147 18.6189 121.83 18.3669L122.39 17.3029C122.717 17.5362 123.113 17.7229 123.58 17.8629C124.047 18.0029 124.518 18.0729 124.994 18.0729C126.17 18.0729 126.758 17.7369 126.758 17.0649C126.758 16.8409 126.679 16.6635 126.52 16.5329C126.361 16.4022 126.161 16.3089 125.918 16.2529C125.685 16.1875 125.349 16.1175 124.91 16.0429C124.313 15.9495 123.823 15.8422 123.44 15.7209C123.067 15.5995 122.745 15.3942 122.474 15.1049C122.203 14.8155 122.068 14.4095 122.068 13.8869C122.068 13.2149 122.348 12.6782 122.908 12.2769C123.468 11.8662 124.219 11.6609 125.162 11.6609C125.657 11.6609 126.151 11.7215 126.646 11.8429C127.141 11.9642 127.547 12.1275 127.864 12.3329L127.29 13.3969C126.683 13.0049 125.969 12.8089 125.148 12.8089C124.579 12.8089 124.145 12.9022 123.846 13.0889C123.547 13.2755 123.398 13.5229 123.398 13.8309C123.398 14.0735 123.482 14.2649 123.65 14.4049C123.818 14.5449 124.023 14.6475 124.266 14.7129C124.518 14.7782 124.868 14.8529 125.316 14.9369C125.913 15.0395 126.394 15.1515 126.758 15.2729C127.131 15.3849 127.449 15.5809 127.71 15.8609C127.971 16.1409 128.102 16.5329 128.102 17.0369C128.102 17.7089 127.813 18.2455 127.234 18.6469C126.665 19.0389 125.885 19.2349 124.896 19.2349ZM133.016 19.2349C132.26 19.2349 131.583 19.0715 130.986 18.7449C130.398 18.4182 129.936 17.9702 129.6 17.4009C129.264 16.8222 129.096 16.1689 129.096 15.4409C129.096 14.7129 129.264 14.0642 129.6 13.4949C129.936 12.9162 130.398 12.4682 130.986 12.1509C131.583 11.8242 132.26 11.6609 133.016 11.6609C133.688 11.6609 134.285 11.7962 134.808 12.0669C135.34 12.3375 135.75 12.7295 136.04 13.2429L135.018 13.9009C134.784 13.5462 134.495 13.2802 134.15 13.1029C133.804 12.9255 133.422 12.8369 133.002 12.8369C132.516 12.8369 132.078 12.9442 131.686 13.1589C131.303 13.3735 131 13.6815 130.776 14.0829C130.561 14.4749 130.454 14.9275 130.454 15.4409C130.454 15.9635 130.561 16.4255 130.776 16.8269C131 17.2189 131.303 17.5222 131.686 17.7369C132.078 17.9515 132.516 18.0589 133.002 18.0589C133.422 18.0589 133.804 17.9702 134.15 17.7929C134.495 17.6155 134.784 17.3495 135.018 16.9949L136.04 17.6389C135.75 18.1522 135.34 18.5489 134.808 18.8289C134.285 19.0995 133.688 19.2349 133.016 19.2349ZM140.848 19.2349C140.111 19.2349 139.448 19.0715 138.86 18.7449C138.272 18.4182 137.81 17.9702 137.474 17.4009C137.148 16.8222 136.984 16.1689 136.984 15.4409C136.984 14.7129 137.148 14.0642 137.474 13.4949C137.81 12.9162 138.272 12.4682 138.86 12.1509C139.448 11.8242 140.111 11.6609 140.848 11.6609C141.586 11.6609 142.244 11.8242 142.822 12.1509C143.41 12.4682 143.868 12.9162 144.194 13.4949C144.53 14.0642 144.698 14.7129 144.698 15.4409C144.698 16.1689 144.53 16.8222 144.194 17.4009C143.868 17.9702 143.41 18.4182 142.822 18.7449C142.244 19.0715 141.586 19.2349 140.848 19.2349ZM140.848 18.0589C141.324 18.0589 141.749 17.9515 142.122 17.7369C142.505 17.5129 142.804 17.2049 143.018 16.8129C143.233 16.4115 143.34 15.9542 143.34 15.4409C143.34 14.9275 143.233 14.4749 143.018 14.0829C142.804 13.6815 142.505 13.3735 142.122 13.1589C141.749 12.9442 141.324 12.8369 140.848 12.8369C140.372 12.8369 139.943 12.9442 139.56 13.1589C139.187 13.3735 138.888 13.6815 138.664 14.0829C138.45 14.4749 138.342 14.9275 138.342 15.4409C138.342 15.9542 138.45 16.4115 138.664 16.8129C138.888 17.2049 139.187 17.5129 139.56 17.7369C139.943 17.9515 140.372 18.0589 140.848 18.0589ZM147.845 12.9769C148.079 12.5475 148.424 12.2209 148.881 11.9969C149.339 11.7729 149.894 11.6609 150.547 11.6609V12.9629C150.473 12.9535 150.37 12.9489 150.239 12.9489C149.511 12.9489 148.937 13.1682 148.517 13.6069C148.107 14.0362 147.901 14.6522 147.901 15.4549V19.1509H146.557V11.7309H147.845V12.9769ZM158.841 15.4829C158.841 15.5855 158.832 15.7209 158.813 15.8889H152.793C152.877 16.5422 153.162 17.0695 153.647 17.4709C154.142 17.8629 154.753 18.0589 155.481 18.0589C156.368 18.0589 157.082 17.7602 157.623 17.1629L158.365 18.0309C158.029 18.4229 157.609 18.7215 157.105 18.9269C156.611 19.1322 156.055 19.2349 155.439 19.2349C154.655 19.2349 153.96 19.0762 153.353 18.7589C152.747 18.4322 152.275 17.9795 151.939 17.4009C151.613 16.8222 151.449 16.1689 151.449 15.4409C151.449 14.7222 151.608 14.0735 151.925 13.4949C152.252 12.9162 152.695 12.4682 153.255 12.1509C153.825 11.8242 154.464 11.6609 155.173 11.6609C155.883 11.6609 156.513 11.8242 157.063 12.1509C157.623 12.4682 158.057 12.9162 158.365 13.4949C158.683 14.0735 158.841 14.7362 158.841 15.4829ZM155.173 12.7949C154.529 12.7949 153.988 12.9909 153.549 13.3829C153.12 13.7749 152.868 14.2882 152.793 14.9229H157.553C157.479 14.2975 157.222 13.7889 156.783 13.3969C156.354 12.9955 155.817 12.7949 155.173 12.7949Z" fill="#1F2041" fill-opacity="0.75"/>
<path d="M223.35 9.35088V19.1509H222.202L216.322 11.8429V19.1509H214.922V9.35088H216.07L221.95 16.6589V9.35088H223.35ZM229.265 19.2349C228.528 19.2349 227.865 19.0715 227.277 18.7449C226.689 18.4182 226.227 17.9702 225.891 17.4009C225.565 16.8222 225.401 16.1689 225.401 15.4409C225.401 14.7129 225.565 14.0642 225.891 13.4949C226.227 12.9162 226.689 12.4682 227.277 12.1509C227.865 11.8242 228.528 11.6609 229.265 11.6609C230.003 11.6609 230.661 11.8242 231.239 12.1509C231.827 12.4682 232.285 12.9162 232.611 13.4949C232.947 14.0642 233.115 14.7129 233.115 15.4409C233.115 16.1689 232.947 16.8222 232.611 17.4009C232.285 17.9702 231.827 18.4182 231.239 18.7449C230.661 19.0715 230.003 19.2349 229.265 19.2349ZM229.265 18.0589C229.741 18.0589 230.166 17.9515 230.539 17.7369C230.922 17.5129 231.221 17.2049 231.435 16.8129C231.65 16.4115 231.757 15.9542 231.757 15.4409C231.757 14.9275 231.65 14.4749 231.435 14.0829C231.221 13.6815 230.922 13.3735 230.539 13.1589C230.166 12.9442 229.741 12.8369 229.265 12.8369C228.789 12.8369 228.36 12.9442 227.977 13.1589C227.604 13.3735 227.305 13.6815 227.081 14.0829C226.867 14.4749 226.759 14.9275 226.759 15.4409C226.759 15.9542 226.867 16.4115 227.081 16.8129C227.305 17.2049 227.604 17.5129 227.977 17.7369C228.36 17.9515 228.789 18.0589 229.265 18.0589ZM240.862 19.2349C240.255 19.2349 239.672 19.1555 239.112 18.9969C238.552 18.8289 238.113 18.6189 237.796 18.3669L238.356 17.3029C238.683 17.5362 239.079 17.7229 239.546 17.8629C240.013 18.0029 240.484 18.0729 240.96 18.0729C242.136 18.0729 242.724 17.7369 242.724 17.0649C242.724 16.8409 242.645 16.6635 242.486 16.5329C242.327 16.4022 242.127 16.3089 241.884 16.2529C241.651 16.1875 241.315 16.1175 240.876 16.0429C240.279 15.9495 239.789 15.8422 239.406 15.7209C239.033 15.5995 238.711 15.3942 238.44 15.1049C238.169 14.8155 238.034 14.4095 238.034 13.8869C238.034 13.2149 238.314 12.6782 238.874 12.2769C239.434 11.8662 240.185 11.6609 241.128 11.6609C241.623 11.6609 242.117 11.7215 242.612 11.8429C243.107 11.9642 243.513 12.1275 243.83 12.3329L243.256 13.3969C242.649 13.0049 241.935 12.8089 241.114 12.8089C240.545 12.8089 240.111 12.9022 239.812 13.0889C239.513 13.2755 239.364 13.5229 239.364 13.8309C239.364 14.0735 239.448 14.2649 239.616 14.4049C239.784 14.5449 239.989 14.6475 240.232 14.7129C240.484 14.7782 240.834 14.8529 241.282 14.9369C241.879 15.0395 242.36 15.1515 242.724 15.2729C243.097 15.3849 243.415 15.5809 243.676 15.8609C243.937 16.1409 244.068 16.5329 244.068 17.0369C244.068 17.7089 243.779 18.2455 243.2 18.6469C242.631 19.0389 241.851 19.2349 240.862 19.2349ZM248.982 19.2349C248.226 19.2349 247.549 19.0715 246.952 18.7449C246.364 18.4182 245.902 17.9702 245.566 17.4009C245.23 16.8222 245.062 16.1689 245.062 15.4409C245.062 14.7129 245.23 14.0642 245.566 13.4949C245.902 12.9162 246.364 12.4682 246.952 12.1509C247.549 11.8242 248.226 11.6609 248.982 11.6609C249.654 11.6609 250.251 11.7962 250.774 12.0669C251.306 12.3375 251.716 12.7295 252.006 13.2429L250.984 13.9009C250.75 13.5462 250.461 13.2802 250.116 13.1029C249.77 12.9255 249.388 12.8369 248.968 12.8369C248.482 12.8369 248.044 12.9442 247.652 13.1589C247.269 13.3735 246.966 13.6815 246.742 14.0829C246.527 14.4749 246.42 14.9275 246.42 15.4409C246.42 15.9635 246.527 16.4255 246.742 16.8269C246.966 17.2189 247.269 17.5222 247.652 17.7369C248.044 17.9515 248.482 18.0589 248.968 18.0589C249.388 18.0589 249.77 17.9702 250.116 17.7929C250.461 17.6155 250.75 17.3495 250.984 16.9949L252.006 17.6389C251.716 18.1522 251.306 18.5489 250.774 18.8289C250.251 19.0995 249.654 19.2349 248.982 19.2349ZM256.814 19.2349C256.077 19.2349 255.414 19.0715 254.826 18.7449C254.238 18.4182 253.776 17.9702 253.44 17.4009C253.114 16.8222 252.95 16.1689 252.95 15.4409C252.95 14.7129 253.114 14.0642 253.44 13.4949C253.776 12.9162 254.238 12.4682 254.826 12.1509C255.414 11.8242 256.077 11.6609 256.814 11.6609C257.552 11.6609 258.21 11.8242 258.788 12.1509C259.376 12.4682 259.834 12.9162 260.16 13.4949C260.496 14.0642 260.664 14.7129 260.664 15.4409C260.664 16.1689 260.496 16.8222 260.16 17.4009C259.834 17.9702 259.376 18.4182 258.788 18.7449C258.21 19.0715 257.552 19.2349 256.814 19.2349ZM256.814 18.0589C257.29 18.0589 257.715 17.9515 258.088 17.7369C258.471 17.5129 258.77 17.2049 258.984 16.8129C259.199 16.4115 259.306 15.9542 259.306 15.4409C259.306 14.9275 259.199 14.4749 258.984 14.0829C258.77 13.6815 258.471 13.3735 258.088 13.1589C257.715 12.9442 257.29 12.8369 256.814 12.8369C256.338 12.8369 255.909 12.9442 255.526 13.1589C255.153 13.3735 254.854 13.6815 254.63 14.0829C254.416 14.4749 254.308 14.9275 254.308 15.4409C254.308 15.9542 254.416 16.4115 254.63 16.8129C254.854 17.2049 255.153 17.5129 255.526 17.7369C255.909 17.9515 256.338 18.0589 256.814 18.0589ZM263.811 12.9769C264.044 12.5475 264.39 12.2209 264.847 11.9969C265.304 11.7729 265.86 11.6609 266.513 11.6609V12.9629C266.438 12.9535 266.336 12.9489 266.205 12.9489C265.477 12.9489 264.903 13.1682 264.483 13.6069C264.072 14.0362 263.867 14.6522 263.867 15.4549V19.1509H262.523V11.7309H263.811V12.9769ZM274.807 15.4829C274.807 15.5855 274.798 15.7209 274.779 15.8889H268.759C268.843 16.5422 269.128 17.0695 269.613 17.4709C270.108 17.8629 270.719 18.0589 271.447 18.0589C272.334 18.0589 273.048 17.7602 273.589 17.1629L274.331 18.0309C273.995 18.4229 273.575 18.7215 273.071 18.9269C272.576 19.1322 272.021 19.2349 271.405 19.2349C270.621 19.2349 269.926 19.0762 269.319 18.7589C268.712 18.4322 268.241 17.9795 267.905 17.4009C267.578 16.8222 267.415 16.1689 267.415 15.4409C267.415 14.7222 267.574 14.0735 267.891 13.4949C268.218 12.9162 268.661 12.4682 269.221 12.1509C269.79 11.8242 270.43 11.6609 271.139 11.6609C271.848 11.6609 272.478 11.8242 273.029 12.1509C273.589 12.4682 274.023 12.9162 274.331 13.4949C274.648 14.0735 274.807 14.7362 274.807 15.4829ZM271.139 12.7949C270.495 12.7949 269.954 12.9909 269.515 13.3829C269.086 13.7749 268.834 14.2882 268.759 14.9229H273.519C273.444 14.2975 273.188 13.7889 272.749 13.3969C272.32 12.9955 271.783 12.7949 271.139 12.7949Z" fill="#1F2041" fill-opacity="0.75"/>
<path d="M328.835 10.5689V13.9849H333.749V15.1889H328.835V19.1509H327.435V9.35088H334.351V10.5689H328.835ZM338.568 11.6609C339.594 11.6609 340.378 11.9129 340.92 12.4169C341.47 12.9209 341.746 13.6722 341.746 14.6709V19.1509H340.472V18.1709C340.248 18.5162 339.926 18.7822 339.506 18.9689C339.095 19.1462 338.605 19.2349 338.036 19.2349C337.205 19.2349 336.538 19.0342 336.034 18.6329C335.539 18.2315 335.292 17.7042 335.292 17.0509C335.292 16.3975 335.53 15.8749 336.006 15.4829C336.482 15.0815 337.238 14.8809 338.274 14.8809H340.402V14.6149C340.402 14.0362 340.234 13.5929 339.898 13.2849C339.562 12.9769 339.067 12.8229 338.414 12.8229C337.975 12.8229 337.546 12.8975 337.126 13.0469C336.706 13.1869 336.351 13.3782 336.062 13.6209L335.502 12.6129C335.884 12.3049 336.342 12.0715 336.874 11.9129C337.406 11.7449 337.97 11.6609 338.568 11.6609ZM338.26 18.1989C338.773 18.1989 339.216 18.0869 339.59 17.8629C339.963 17.6295 340.234 17.3029 340.402 16.8829V15.8469H338.33C337.191 15.8469 336.622 16.2295 336.622 16.9949C336.622 17.3682 336.766 17.6622 337.056 17.8769C337.345 18.0915 337.746 18.1989 338.26 18.1989ZM344.233 11.7309H345.577V19.1509H344.233V11.7309ZM344.905 10.3029C344.644 10.3029 344.424 10.2189 344.247 10.0509C344.079 9.88288 343.995 9.67755 343.995 9.43488C343.995 9.19221 344.079 8.98688 344.247 8.81888C344.424 8.64155 344.644 8.55288 344.905 8.55288C345.166 8.55288 345.381 8.63688 345.549 8.80488C345.726 8.96354 345.815 9.16421 345.815 9.40688C345.815 9.65888 345.726 9.87355 345.549 10.0509C345.381 10.2189 345.166 10.3029 344.905 10.3029ZM348.143 8.76288H349.487V19.1509H348.143V8.76288ZM354.181 19.2349C353.575 19.2349 352.991 19.1555 352.431 18.9969C351.871 18.8289 351.433 18.6189 351.115 18.3669L351.675 17.3029C352.002 17.5362 352.399 17.7229 352.865 17.8629C353.332 18.0029 353.803 18.0729 354.279 18.0729C355.455 18.0729 356.043 17.7369 356.043 17.0649C356.043 16.8409 355.964 16.6635 355.805 16.5329C355.647 16.4022 355.446 16.3089 355.203 16.2529C354.97 16.1875 354.634 16.1175 354.195 16.0429C353.598 15.9495 353.108 15.8422 352.725 15.7209C352.352 15.5995 352.03 15.3942 351.759 15.1049C351.489 14.8155 351.353 14.4095 351.353 13.8869C351.353 13.2149 351.633 12.6782 352.193 12.2769C352.753 11.8662 353.505 11.6609 354.447 11.6609C354.942 11.6609 355.437 11.7215 355.931 11.8429C356.426 11.9642 356.832 12.1275 357.149 12.3329L356.575 13.3969C355.969 13.0049 355.255 12.8089 354.433 12.8089C353.864 12.8089 353.43 12.9022 353.131 13.0889C352.833 13.2755 352.683 13.5229 352.683 13.8309C352.683 14.0735 352.767 14.2649 352.935 14.4049C353.103 14.5449 353.309 14.6475 353.551 14.7129C353.803 14.7782 354.153 14.8529 354.601 14.9369C355.199 15.0395 355.679 15.1515 356.043 15.2729C356.417 15.3849 356.734 15.5809 356.995 15.8609C357.257 16.1409 357.387 16.5329 357.387 17.0369C357.387 17.7089 357.098 18.2455 356.519 18.6469C355.95 19.0389 355.171 19.2349 354.181 19.2349Z" fill="#1F2041" fill-opacity="0.75"/>
<g filter="url(#filter0_d)">
<path d="M6.02588 13.6851C6.02588 9.26678 9.6076 5.68506 14.0259 5.68506C18.4442 5.68506 22.0259 9.26678 22.0259 13.6851C22.0259 18.1033 18.4442 21.6851 14.0259 21.6851C9.6076 21.6851 6.02588 18.1033 6.02588 13.6851Z" fill="url(#paint0_linear)"/>
</g>
<path d="M187.452 13.6851C187.452 9.26678 191.034 5.68506 195.452 5.68506C199.87 5.68506 203.452 9.26678 203.452 13.6851C203.452 18.1033 199.87 21.6851 195.452 21.6851C191.034 21.6851 187.452 18.1033 187.452 13.6851Z" fill="#BDBDBD"/>
<g filter="url(#filter1_i)">
<path d="M299.965 13.6851C299.965 9.26678 303.547 5.68506 307.965 5.68506C312.383 5.68506 315.965 9.26678 315.965 13.6851C315.965 18.1033 312.383 21.6851 307.965 21.6851C303.547 21.6851 299.965 18.1033 299.965 13.6851Z" fill="url(#paint1_linear)"/>
</g>
<path d="M11.5967 14.458C11.032 14.458 10.57 14.2673 10.2107 13.886C9.85869 13.4973 9.68269 12.9803 9.68269 12.335C9.68269 11.6897 9.85869 11.1763 10.2107 10.795C10.57 10.4063 11.032 10.212 11.5967 10.212C12.1614 10.212 12.6197 10.4063 12.9717 10.795C13.3237 11.1763 13.4997 11.6897 13.4997 12.335C13.4997 12.9803 13.3237 13.4973 12.9717 13.886C12.6197 14.2673 12.1614 14.458 11.5967 14.458ZM16.1837 10.3H17.4927L12.2347 18H10.9257L16.1837 10.3ZM11.5967 13.556C11.846 13.556 12.0404 13.4533 12.1797 13.248C12.3264 13.0427 12.3997 12.7383 12.3997 12.335C12.3997 11.9317 12.3264 11.6273 12.1797 11.422C12.0404 11.2167 11.846 11.114 11.5967 11.114C11.3547 11.114 11.1604 11.2203 11.0137 11.433C10.867 11.6383 10.7937 11.939 10.7937 12.335C10.7937 12.731 10.867 13.0353 11.0137 13.248C11.1604 13.4533 11.3547 13.556 11.5967 13.556ZM16.8217 18.088C16.455 18.088 16.125 18.0037 15.8317 17.835C15.5457 17.659 15.322 17.4097 15.1607 17.087C14.9994 16.7643 14.9187 16.3903 14.9187 15.965C14.9187 15.5397 14.9994 15.1657 15.1607 14.843C15.322 14.5203 15.5457 14.2747 15.8317 14.106C16.125 13.93 16.455 13.842 16.8217 13.842C17.3864 13.842 17.8447 14.0363 18.1967 14.425C18.556 14.8063 18.7357 15.3197 18.7357 15.965C18.7357 16.6103 18.556 17.1273 18.1967 17.516C17.8447 17.8973 17.3864 18.088 16.8217 18.088ZM16.8217 17.186C17.071 17.186 17.2654 17.0833 17.4047 16.878C17.5514 16.6653 17.6247 16.361 17.6247 15.965C17.6247 15.569 17.5514 15.2683 17.4047 15.063C17.2654 14.8503 17.071 14.744 16.8217 14.744C16.5797 14.744 16.3854 14.8467 16.2387 15.052C16.092 15.2573 16.0187 15.5617 16.0187 15.965C16.0187 16.3683 16.092 16.6727 16.2387 16.878C16.3854 17.0833 16.5797 17.186 16.8217 17.186Z" fill="white"/>
<defs>
<filter id="filter0_d" x="2.02588" y="2.68506" width="24" height="24" filterUnits="userSpaceOnUse" color-interpolation-filters="sRGB">
<feFlood flood-opacity="0" result="BackgroundImageFix"/>
<feColorMatrix in="SourceAlpha" type="matrix" values="0 0 0 0 0 0 0 0 0 0 0 0 0 0 0 0 0 0 127 0"/>
<feOffset dy="1"/>
<feGaussianBlur stdDeviation="2"/>
<feColorMatrix type="matrix" values="0 0 0 0 0 0 0 0 0 0 0 0 0 0 0 0 0 0 0.25 0"/>
<feBlend mode="normal" in2="BackgroundImageFix" result="effect1_dropShadow"/>
<feBlend mode="normal" in="SourceGraphic" in2="effect1_dropShadow" result="shape"/>
</filter>
<filter id="filter1_i" x="299.965" y="5.68506" width="16" height="26" filterUnits="userSpaceOnUse" color-interpolation-filters="sRGB">
<feFlood flood-opacity="0" result="BackgroundImageFix"/>
<feBlend mode="normal" in="SourceGraphic" in2="BackgroundImageFix" result="shape"/>
<feColorMatrix in="SourceAlpha" type="matrix" values="0 0 0 0 0 0 0 0 0 0 0 0 0 0 0 0 0 0 127 0" result="hardAlpha"/>
<feOffset dy="10"/>
<feGaussianBlur stdDeviation="10"/>
<feComposite in2="hardAlpha" operator="arithmetic" k2="-1" k3="1"/>
<feColorMatrix type="matrix" values="0 0 0 0 0.121569 0 0 0 0 0.12549 0 0 0 0 0.254902 0 0 0 0.15 0"/>
<feBlend mode="normal" in2="shape" result="effect1_innerShadow"/>
</filter>
<linearGradient id="paint0_linear" x1="14.0259" y1="5.68506" x2="14.0259" y2="21.6851" gradientUnits="userSpaceOnUse">
<stop stop-color="#BC9CFF"/>
<stop offset="1" stop-color="#8BA4F9"/>
</linearGradient>
<linearGradient id="paint1_linear" x1="307.965" y1="5.68506" x2="307.965" y2="21.6851" gradientUnits="userSpaceOnUse">
<stop stop-color="#D00A0A"/>
<stop offset="1" stop-color="#E26823"/>
</linearGradient>
</defs>
</svg>
