<svg width="48" height="22" viewBox="0 0 48 22" fill="none" xmlns="http://www.w3.org/2000/svg">
<path d="M33.3532 2.06274C23.8265 4.77396 23.7534 4.54685 13.127 2.23925C5.9574 0.326455 0.169575 1.43309 0.21805 6.98779C0.266869 12.5819 7.13114 21.2522 13.2925 21.1985C17.7545 21.1989 19.9662 16.5598 23.3656 16.5302C26.7649 16.5005 29.0573 21.1003 33.519 21.0614C39.6803 21.0076 46.9974 12.1741 46.9489 6.61938C46.9001 1.02528 42.3539 -0.788293 33.3532 2.06274ZM13.1175 15.7529C10.2705 15.7777 7.91316 13.4738 7.88806 10.598C7.84401 5.55041 18.2363 8.23714 18.2614 11.113C18.2865 13.9888 15.9644 15.728 13.1175 15.7529ZM33.5986 15.5741C30.7516 15.599 28.3996 13.9006 28.3745 11.0247C28.3494 8.14889 38.6885 4.75143 38.7372 10.3287C38.7623 13.2046 36.488 15.5489 33.5986 15.5741Z" fill="url(#paint0_linear)"/>
<defs>
<linearGradient id="paint0_linear" x1="23.5318" y1="0.877271" x2="23.7087" y2="21.147" gradientUnits="userSpaceOnUse">
<stop stop-color="#6FCF97"/>
<stop offset="1" stop-color="#66D2EA"/>
</linearGradient>
</defs>
</svg>
