<svg width="17" height="17" viewBox="0 0 17 17" fill="none" xmlns="http://www.w3.org/2000/svg">
<path d="M5.97435 5.22969C6.67435 4.52969 6.67435 3.40469 5.97435 2.70469L4.09935 0.829687C3.77435 0.504687 3.34935 0.304688 2.87435 0.304688C2.37435 0.304688 1.89935 0.479687 1.57435 0.829687L0.899353 1.50469C0.874353 1.52969 0.849353 1.55469 0.824353 1.57969L0.474353 2.15469C0.449353 2.17969 0.424353 2.20469 0.424353 2.25469C0.324353 2.52969 0.249353 2.80469 0.199353 3.10469C-0.250647 5.80469 1.32435 9.37969 4.17435 12.2547C6.72435 14.7797 9.84935 16.3047 12.3994 16.3047C12.7244 16.3047 13.0244 16.2797 13.3494 16.2297C13.6494 16.1797 13.9244 16.1047 14.1994 16.0047C14.2244 15.9797 14.2744 15.9797 14.2994 15.9547L14.8744 15.5797C14.8994 15.5547 14.9244 15.5297 14.9494 15.5047L15.6244 14.8297C16.3244 14.1297 16.3244 13.0047 15.6244 12.3047L13.7494 10.4297C13.0494 9.72969 11.9244 9.72969 11.2244 10.4297L10.7744 10.8797C10.2994 11.3547 9.54935 11.4297 8.99935 11.0547C8.29935 10.5547 7.64935 10.0047 7.04935 9.37969C6.44935 8.77969 5.87435 8.10469 5.37435 7.42969C4.97435 6.87969 5.04935 6.12969 5.54935 5.65469L5.97435 5.22969Z" fill="#1F2041" fill-opacity="0.75"/>
</svg>
