<svg width="17" height="17" viewBox="0 0 17 17" fill="none" xmlns="http://www.w3.org/2000/svg">
<path d="M15.4588 9.25847C15.5184 8.87902 15.5518 8.49586 15.5518 8.10153C15.5518 4.00202 12.2298 0.67628 8.12661 0.67628C7.73228 0.67628 7.34539 0.709761 6.96967 0.769282C6.28146 0.345195 5.4742 0.0996704 4.61115 0.0996704C2.13359 0.0996704 0.124756 2.10851 0.124756 4.58607C0.124756 5.44912 0.37028 6.25638 0.794367 6.94087C0.734846 7.32032 0.705085 7.70348 0.705085 8.09781C0.705085 12.1973 4.0271 15.5193 8.12661 15.5193C8.52093 15.5193 8.90782 15.4896 9.28726 15.4301C9.97176 15.8541 10.779 16.096 11.6421 16.096C14.1196 16.096 16.1285 14.0871 16.1285 11.6096C16.1247 10.7502 15.8792 9.94296 15.4588 9.25847ZM11.6495 11.4756C11.337 11.9295 10.8757 12.2792 10.2731 12.5358C9.67043 12.7888 8.95618 12.919 8.13033 12.919C7.14079 12.919 6.32238 12.7479 5.67881 12.3982C5.22124 12.149 4.84923 11.8142 4.56279 11.3938C4.27634 10.9734 4.13126 10.5642 4.13126 10.1662C4.13126 9.9318 4.22054 9.72348 4.39538 9.5598C4.57395 9.39239 4.80087 9.30683 5.06872 9.30683C5.2882 9.30683 5.47792 9.37379 5.63044 9.50399C5.78297 9.6342 5.91317 9.82764 6.01733 10.0769C6.14381 10.3708 6.27773 10.6126 6.42654 10.806C6.57162 10.9995 6.7725 11.1594 7.03663 11.2859C7.29703 11.4124 7.643 11.4756 8.07824 11.4756C8.66973 11.4756 9.14962 11.3491 9.51791 11.0925C9.88619 10.8358 10.0648 10.527 10.0648 10.1513C10.0648 9.84996 9.96803 9.6156 9.77459 9.42959C9.57743 9.23987 9.32074 9.09851 9.00454 8.99807C8.68833 8.89762 8.26053 8.78974 7.72484 8.67814C7.00687 8.5219 6.40422 8.33961 5.92061 8.12757C5.43328 7.91553 5.0464 7.62908 4.75623 7.26824C4.46979 6.89995 4.3247 6.4461 4.3247 5.90669C4.3247 5.39332 4.47723 4.93203 4.77855 4.53027C5.0836 4.1285 5.52256 3.81974 6.09545 3.60769C6.66462 3.39193 7.33795 3.28777 8.10801 3.28777C8.72182 3.28777 9.25378 3.35845 9.70763 3.49981C10.1578 3.64117 10.5298 3.8309 10.8311 4.06526C11.1287 4.29962 11.3482 4.54887 11.4858 4.80927C11.6235 5.06968 11.6941 5.32636 11.6941 5.57561C11.6941 5.80625 11.6049 6.01829 11.43 6.20058C11.2552 6.38658 11.032 6.47958 10.7678 6.47958C10.5335 6.47958 10.3475 6.42378 10.2173 6.30846C10.0908 6.19686 9.9606 6.01829 9.81923 5.77277C9.64067 5.4268 9.42491 5.15896 9.17566 4.96552C8.93386 4.77579 8.53209 4.67907 7.97036 4.67907C7.45327 4.67907 7.04035 4.78323 6.72786 4.99156C6.41538 5.19988 6.26286 5.4454 6.26286 5.73185C6.26286 5.91041 6.31494 6.06293 6.4191 6.18942C6.52326 6.31962 6.67206 6.43122 6.85806 6.52794C7.04779 6.62466 7.23751 6.69907 7.43095 6.75115C7.6244 6.80695 7.94804 6.88507 8.39445 6.99295C8.95618 7.11571 9.46583 7.24964 9.92339 7.39844C10.381 7.54724 10.7716 7.7258 11.0952 7.93785C11.4189 8.14989 11.6755 8.42146 11.8541 8.74882C12.0364 9.07619 12.1294 9.47795 12.1294 9.94668C12.122 10.5159 11.9657 11.0255 11.6495 11.4756Z" fill="#1F2041" fill-opacity="0.75"/>
</svg>
