<svg width="34" height="35" viewBox="0 0 34 35" fill="none" xmlns="http://www.w3.org/2000/svg">
<g filter="url(#filter0_d)">
<path d="M7.04639 17.1268C7.04639 11.5293 11.5841 6.99158 17.1816 6.99158V6.99158C22.7792 6.99158 27.3169 11.5293 27.3169 17.1268V17.1268C27.3169 22.7243 22.7792 27.2621 17.1816 27.2621V27.2621C11.5841 27.2621 7.04639 22.7243 7.04639 17.1268V17.1268Z" fill="url(#paint0_linear)"/>
</g>
<path d="M15.435 19.02L21.1733 13.2563L21.935 14.0181L15.435 20.5181L12.4135 17.4966L13.1499 16.7349L15.435 19.02Z" fill="white"/>
<path d="M15.435 19.02L15.0815 19.3736L15.4358 19.7279L15.7894 19.3728L15.435 19.02ZM21.1733 13.2563L21.5269 12.9028L21.1725 12.5485L20.819 12.9036L21.1733 13.2563ZM21.935 14.0181L22.2886 14.3716L22.6421 14.0181L22.2886 13.6645L21.935 14.0181ZM15.435 20.5181L15.0815 20.8716L15.435 21.2252L15.7886 20.8716L15.435 20.5181ZM12.4135 17.4966L12.0541 17.1491L11.7124 17.5025L12.06 17.8501L12.4135 17.4966ZM13.1499 16.7349L13.5034 16.3813L13.1438 16.0217L12.7904 16.3874L13.1499 16.7349ZM15.7894 19.3728L21.5276 13.6091L20.819 12.9036L15.0807 18.6672L15.7894 19.3728ZM20.8198 13.6099L21.5815 14.3716L22.2886 13.6645L21.5269 12.9028L20.8198 13.6099ZM21.5815 13.6645L15.0815 20.1645L15.7886 20.8716L22.2886 14.3716L21.5815 13.6645ZM15.7886 20.1645L12.7671 17.143L12.06 17.8501L15.0815 20.8716L15.7886 20.1645ZM12.773 17.8441L13.5094 17.0824L12.7904 16.3874L12.0541 17.1491L12.773 17.8441ZM12.7963 17.0884L15.0815 19.3736L15.7886 18.6665L13.5034 16.3813L12.7963 17.0884Z" fill="white"/>
<defs>
<filter id="filter0_d" x="3.04639" y="3.99158" width="28.2705" height="28.2705" filterUnits="userSpaceOnUse" color-interpolation-filters="sRGB">
<feFlood flood-opacity="0" result="BackgroundImageFix"/>
<feColorMatrix in="SourceAlpha" type="matrix" values="0 0 0 0 0 0 0 0 0 0 0 0 0 0 0 0 0 0 127 0"/>
<feOffset dy="1"/>
<feGaussianBlur stdDeviation="2"/>
<feColorMatrix type="matrix" values="0 0 0 0 0 0 0 0 0 0 0 0 0 0 0 0 0 0 0.25 0"/>
<feBlend mode="normal" in2="BackgroundImageFix" result="effect1_dropShadow"/>
<feBlend mode="normal" in="SourceGraphic" in2="effect1_dropShadow" result="shape"/>
</filter>
<linearGradient id="paint0_linear" x1="17.1816" y1="6.99158" x2="17.1816" y2="27.2621" gradientUnits="userSpaceOnUse">
<stop stop-color="#6FCF97"/>
<stop offset="1" stop-color="#66D2EA"/>
</linearGradient>
</defs>
</svg>
