<svg width="35" height="35" viewBox="0 0 35 35" fill="none" xmlns="http://www.w3.org/2000/svg">
<path d="M7.41943 17.1268C7.41943 11.5293 11.9571 6.99158 17.5547 6.99158C23.1522 6.99158 27.6899 11.5293 27.6899 17.1268C27.6899 22.7243 23.1522 27.2621 17.5547 27.2621C11.9571 27.2621 7.41943 22.7243 7.41943 17.1268Z" fill="#BDBDBD"/>
<path d="M16.5039 18.3189C16.5039 17.9029 16.5959 17.5589 16.7799 17.2869C16.9719 17.0149 17.2479 16.7149 17.6079 16.3869C17.8719 16.1469 18.0639 15.9469 18.1839 15.7869C18.3119 15.6189 18.3759 15.4309 18.3759 15.2229C18.3759 14.9269 18.2559 14.6949 18.0159 14.5269C17.7839 14.3509 17.4719 14.2629 17.0799 14.2629C16.7039 14.2629 16.3679 14.3429 16.0719 14.5029C15.7839 14.6549 15.5399 14.8709 15.3399 15.1509L13.8879 14.2989C14.2239 13.7869 14.6759 13.3909 15.2439 13.1109C15.8199 12.8309 16.4999 12.6909 17.2839 12.6909C18.2039 12.6909 18.9399 12.8869 19.4919 13.2789C20.0519 13.6709 20.3319 14.2149 20.3319 14.9109C20.3319 15.2389 20.2759 15.5269 20.1639 15.7749C20.0599 16.0229 19.9279 16.2349 19.7679 16.4109C19.6159 16.5789 19.4159 16.7749 19.1679 16.9989C18.8719 17.2629 18.6559 17.4869 18.5199 17.6709C18.3839 17.8469 18.3159 18.0629 18.3159 18.3189H16.5039ZM17.4159 21.3309C17.0879 21.3309 16.8119 21.2269 16.5879 21.0189C16.3719 20.8029 16.2639 20.5429 16.2639 20.2389C16.2639 19.9349 16.3719 19.6829 16.5879 19.4829C16.8039 19.2749 17.0799 19.1709 17.4159 19.1709C17.7519 19.1709 18.0279 19.2749 18.2439 19.4829C18.4599 19.6829 18.5679 19.9349 18.5679 20.2389C18.5679 20.5429 18.4559 20.8029 18.2319 21.0189C18.0159 21.2269 17.7439 21.3309 17.4159 21.3309Z" fill="white"/>
</svg>
